HIERARCHY
ROOT pelvis
{
  OFFSET 0 100 0
  CHANNELS 6 Xposition Yposition Zposition Zrotation Xrotation Yrotation
  JOINT pelvis_right_femur
  {
    OFFSET -10.78128 -3.44521 -0.5502486
    CHANNELS 3 Zrotation Xrotation Yrotation
    JOINT right_femur_tibia
    {
      OFFSET -0.8047443 -44.0398 -0.1307829
      CHANNELS 3 Zrotation Xrotation Yrotation
      JOINT right_tibia_foot
      {
        OFFSET 3.006224 -47.83518 -5
        CHANNELS 3 Zrotation Xrotation Yrotation
        End Site
        {
          OFFSET 0 -5 15
        }
      }
    }
  }
  JOINT pelvis_left_femur
  {
    OFFSET 10.78128 -3.44521 -0.5502486
    CHANNELS 3 Zrotation Xrotation Yrotation
    JOINT left_femur_tibia
    {
      OFFSET 0.8047443 -44.0398 -0.1307829
      CHANNELS 3 Zrotation Xrotation Yrotation
      JOINT left_tibia_foot
      {
        OFFSET -4.370144 -48.10324 -4.275266
        CHANNELS 3 Zrotation Xrotation Yrotation
        End Site
        {
          OFFSET 0 -5 15
        }
      }
    }
  }
  JOINT pelvis_spine1
  {
    OFFSET 0 6.468898 -3.129235
    CHANNELS 3 Zrotation Xrotation Yrotation
    JOINT spine1
    {
      OFFSET 0 23.15396 4.99043
      CHANNELS 3 Zrotation Xrotation Yrotation
      JOINT spine2
      {
        OFFSET 0 20.79997 -5.064912
        CHANNELS 3 Zrotation Xrotation Yrotation
        JOINT neck
        {
          OFFSET 0 14.38658 9.616178
          CHANNELS 3 Zrotation Xrotation Yrotation
          End Site
          {
            OFFSET 0 20 0
          }
        }
      }
      JOINT right_manubrium
      {
        OFFSET -5.722621 16.35077 3.967754
        CHANNELS 3 Zrotation Xrotation Yrotation
        JOINT right_clavicle
        {
          OFFSET -13.16364 1.694482 -4.693211
          CHANNELS 3 Zrotation Xrotation Yrotation
          JOINT right_humerus
          {
            OFFSET -28.5034 -0.3100689 -2.792744
            CHANNELS 3 Zrotation Xrotation Yrotation
            JOINT right_radius
            {
              OFFSET -25.15693 0.02248979 -1.271978
              CHANNELS 3 Zrotation Xrotation Yrotation
              End Site
              {
                OFFSET -15 0 0
              }
            }
          }
        }
      }
      JOINT left_manubrium
      {
        OFFSET 5.722621 16.35077 3.967754
        CHANNELS 3 Zrotation Xrotation Yrotation
        JOINT left_clavicle
        {
          OFFSET 13.16364 1.694482 -4.693211
          CHANNELS 3 Zrotation Xrotation Yrotation
          JOINT left_humerus
          {
            OFFSET 29.39168 -1.063119 -2.237045
            CHANNELS 3 Zrotation Xrotation Yrotation
            JOINT left_radius
            {
              OFFSET 24.59957 -0.9528479 0.9047498
              CHANNELS 3 Zrotation Xrotation Yrotation
              End Site
              {
                OFFSET 15 -0 -0
              }
            }
          }
        }
      }
    }
  }
}
MOTION
Frames: 16
Frame Time: 0.0416666666667
29.75082 105.8193 240.6977 2.124084 -6.780364 3.458677 -0.1165406 11.88004 6.760363 -8.36735e-06 36.42793 7.951477e-06 2.871328 -10.14883 -4.535352 -2.680071 -16.82735 -7.462676 4.573682e-06 19.42804 1.143647e-06 -4.995532 -9.749131 20.194 -2.528818 -0.01375992 7.780464 -0.9639407 10.04413 -3.625215 2.296184 22.65973 5.180869 1.678123 -17.31151 7.846812 3.428569 -20.37433 10.75239 81.64303 28.08202 -7.161896 -1.48926e-06 1.314232e-06 21.79141 -25.03844 13.72047 14.22084 3.788102 -15.38902 -2.860655 -93.22838 23.94157 24.23232 2.740433e-07 8.293506e-07 -9.544393 -0.8296788 7.405087 16.34101
31.07549 106.3331 246.5848 2.279455 -7.129283 3.842663 -0.4747695 9.572143 6.8491 -7.294498e-06 42.98157 6.054906e-06 2.719313 -7.542477 -5.075884 -3.835282 -13.19391 -8.729233 6.681901e-07 20.46173 2.140344e-06 -4.782942 -10.45074 20.15056 -2.769016 -0.01471155 7.133144 -1.013865 9.97383 -3.693759 2.389217 22.87478 5.376256 1.793313 -17.21444 8.115554 3.761021 -19.38021 10.56768 82.062 28.19973 -7.959664 -6.434915e-07 8.575426e-07 20.23674 -24.34233 13.34733 13.54757 3.660471 -15.19563 -2.974557 -92.40204 24.65215 22.86808 6.339859e-07 7.75389e-07 -9.198493 -0.7422154 7.606265 16.25559
32.36968 107.1748 252.3283 2.467751 -7.416094 4.422944 -0.7949752 6.077809 6.803749 -4.963104e-06 48.79869 3.250251e-06 2.650252 -5.241496 -5.769346 -4.972918 -8.530787 -10.08827 -2.915019e-06 20.44046 2.959065e-06 -4.532495 -11.76538 20.12898 -3.061876 0.02311402 6.33583 -0.9991837 9.788191 -3.876119 2.520341 23.22114 5.594423 1.883101 -17.10591 8.491478 4.043392 -18.25583 10.32508 83.02824 28.33754 -9.189657 2.720081e-07 2.949229e-07 18.49047 -23.55456 12.9692 12.7736 3.721579 -15.18066 -3.089137 -91.61188 25.5081 20.89746 7.769872e-07 5.96567e-07 -9.440126 -0.5847645 7.938257 16.06052
33.58687 108.1617 257.834 2.563203 -7.454152 5.108035 -0.8314353 1.632031 6.555467 -1.274923e-07 51.79787 -1.669723e-06 2.24366 -3.974171 -6.358002 -5.837946 -3.334303 -11.46843 -6.429994e-06 19.67213 3.054126e-06 -4.165223 -13.35373 20.06902 -3.27731 0.08474958 5.426663 -0.8408011 9.403362 -4.153987 2.653621 23.52152 5.738557 1.923208 -17.03211 8.84478 4.164735 -17.06399 10.00071 83.8147 28.44065 -10.58017 1.363158e-06 -5.13031e-07 16.5754 -22.15456 12.42216 11.65047 3.963984 -15.31681 -3.131855 -90.42897 26.41418 18.43339 5.500522e-07 1.575216e-07 -10.18851 -0.2145295 8.603158 15.43945
34.73038 109.0575 263.1902 2.612407 -7.300236 5.851025 -0.7177142 -3.102461 6.098845 3.608183e-06 51.74292 -5.016397e-06 1.90329 -3.444807 -6.861941 -6.298578 1.474049 -12.35228 -7.593591e-06 17.95653 2.72187e-06 -3.818123 -15.08492 19.86619 -3.4154 0.1317193 4.627303 -0.6116255 9.057575 -4.545491 2.745761 23.73305 5.837149 1.918747 -16.99114 9.12214 4.10147 -16.12702 9.727965 84.82784 28.41481 -12.15296 1.979566e-06 -1.043412e-06 14.93887 -21.05481 12.05737 10.72207 4.388095 -15.78846 -3.21883 -89.23454 26.93482 15.8585 1.556155e-07 -2.099203e-07 -11.72331 0.3030991 9.232058 14.60114
35.78295 109.6351 268.4252 2.564004 -6.931878 6.56583 -0.4195545 -7.891151 5.483487 6.324761e-06 48.22407 -6.884747e-06 1.478807 -3.938525 -7.213395 -6.370554 5.691302 -12.83948 -7.140853e-06 15.5245 1.84315e-06 -3.507776 -16.78024 19.51092 -3.43715 0.1823117 3.926788 -0.3024731 8.653637 -4.988222 2.805797 23.7836 5.836382 1.847309 -16.92041 9.281514 3.825354 -15.36931 9.453233 85.52379 28.22958 -13.63128 2.319569e-06 -1.431046e-06 13.54005 -19.94587 11.75562 9.826336 4.955134 -16.44328 -3.280633 -87.72583 27.12477 13.15689 -4.938581e-07 -5.964695e-07 -13.79342 0.9579776 9.870746 13.48254
36.73796 109.7567 273.6581 2.45647 -6.488001 7.207359 -0.004248019 -12.61664 4.786937 7.24995e-06 42.25909 -6.605379e-06 1.181701 -4.9201 -7.554581 -6.177389 9.321808 -12.80311 -5.027327e-06 13.34438 9.146191e-07 -3.412728 -18.33321 18.92531 -3.353204 0.2376078 3.37335 0.04111162 8.333856 -5.50189 2.835772 23.74822 5.782712 1.736578 -16.83034 9.349362 3.41712 -14.77914 9.249007 86.38321 27.9043 -15.25115 2.270437e-06 -1.507443e-06 12.32353 -19.20631 11.70994 9.122685 5.61018 -17.35982 -3.391726 -86.23255 26.91122 10.41753 -1.208871e-06 -8.376842e-07 -16.48469 1.681505 10.33064 12.28077
37.58818 109.3642 278.9665 2.308243 -6.068149 7.734002 0.4846834 -16.89669 4.120993 7.665375e-06 34.89078 -5.590968e-06 0.9543961 -6.310733 -7.889064 -5.824539 12.2656 -12.42934 -2.352431e-06 11.80902 -3.70142e-08 -3.545871 -19.62363 18.22683 -3.183512 0.3189239 2.955619 0.3823159 8.062514 -6.00437 2.864754 23.6948 5.671036 1.593112 -16.69832 9.356022 2.930444 -14.30433 9.095831 87.29519 27.46889 -16.82154 2.080902e-06 -1.451938e-06 11.28506 -18.70664 11.82193 8.546384 6.277403 -18.35941 -3.508187 -84.92074 26.47114 7.827922 -1.976778e-06 -1.004486e-06 -19.35379 2.387942 10.65553 11.11108
38.29687 108.5148 284.2779 2.111491 -5.731728 8.115924 1.032737 -20.70716 3.573785 9.247158e-06 27.6772 -5.817113e-06 0.4568494 -7.909825 -8.167237 -5.453392 14.9677 -12.21926 -1.253768e-06 11.15439 -1.237119e-06 -3.71993 -20.60355 17.59854 -2.960426 0.4330775 2.523264 0.7115036 7.710174 -6.400037 2.925857 23.65684 5.492653 1.436683 -16.51879 9.338323 2.435328 -13.74213 8.905634 87.80482 27.00235 -18.10443 2.254841e-06 -1.708045e-06 10.16545 -17.83839 11.72237 7.763597 6.862216 -19.15718 -3.55625 -83.55152 26.10798 5.363689 -2.835331e-06 -1.304119e-06 -21.71907 3.101339 11.10425 9.881811
38.86909 107.3683 289.6268 1.944921 -5.598112 8.36883 1.560437 -23.5951 3.222459 1.07928e-05 22.00755 -6.348438e-06 -0.009948585 -9.106107 -8.470085 -5.153655 17.10112 -11.9758 -1.174497e-06 12.07761 -2.269419e-06 -4.056522 -21.12638 17.02415 -2.719913 0.5601684 2.188779 0.963187 7.469609 -6.695308 3.003092 23.69921 5.317946 1.309566 -16.3444 9.319159 2.044528 -13.20362 8.780429 88.40414 26.56001 -19.23498 2.549564e-06 -2.020407e-06 9.101365 -17.14171 11.65771 7.070067 7.278992 -19.80803 -3.620533 -82.60043 25.79149 3.372909 -3.508866e-06 -1.553504e-06 -23.55531 3.684727 11.44616 8.907422
39.32597 106.1483 294.9971 1.823011 -5.657923 8.517748 2.028467 -25.27201 3.099697 1.239192e-05 18.82251 -7.557269e-06 -0.5135023 -9.710973 -8.711576 -4.980835 18.54559 -11.85918 -2.533861e-06 14.39379 -3.030421e-06 -4.41098 -21.13268 16.62066 -2.496704 0.6728424 1.949285 1.11798 7.340159 -6.845005 3.084345 23.79906 5.168504 1.236561 -16.21985 9.299006 1.815484 -12.72089 8.712443 88.86541 26.23112 -20.03086 3.027128e-06 -2.453578e-06 8.153954 -16.50523 11.52625 6.450442 7.459107 -20.18184 -3.680882 -82.04577 25.63541 2.086481 -3.918743e-06 -1.793199e-06 -24.50022 4.104764 11.73807 8.232803
39.73011 105.149 300.4591 1.821066 -6.01873 8.634627 2.336713 -25.58168 3.215156 1.347372e-05 19.36585 -9.133993e-06 -0.803738 -9.146959 -8.961945 -5.04103 19.26864 -11.73646 -4.93535e-06 18.50493 -2.981489e-06 -4.8558 -20.61187 16.38569 -2.334827 0.7564857 1.859304 1.12629 7.476555 -6.873417 3.163347 24.03362 5.109117 1.252845 -16.18481 9.314317 1.828995 -12.35819 8.772699 89.70086 26.02062 -20.67616 3.507138e-06 -2.801866e-06 7.374905 -16.3637 11.53341 6.12251 7.355854 -20.35813 -3.820847 -82.2643 25.64162 1.683785 -3.840603e-06 -1.890967e-06 -24.60174 4.273134 11.82728 8.077796
40.09547 104.5939 305.9401 1.820535 -6.5288 8.696961 2.700267 -24.47504 3.538172 1.521047e-05 21.74672 -1.202181e-05 -1.365796 -8.310093 -9.032294 -5.137369 19.06544 -11.79061 -9.46694e-06 24.2409 -2.427151e-06 -5.252304 -19.40927 16.37157 -2.137612 0.8241644 1.873354 1.063741 7.681166 -6.724252 3.243272 24.28782 5.027005 1.315181 -16.22324 9.283763 1.954405 -12.07941 8.873791 90.12344 25.9399 -20.85192 4.302011e-06 -3.416249e-06 6.726113 -16.01382 11.34567 5.741124 7.000827 -20.20667 -3.922808 -82.76374 25.83047 2.098355 -3.575921e-06 -2.089902e-06 -23.64075 4.347185 12.0073 8.081802
40.4301 104.5796 311.4383 1.802538 -7.181729 8.649876 3.19761 -21.81842 4.042972 1.753281e-05 24.32251 -1.57619e-05 -2.089985 -7.870811 -8.973305 -5.119872 17.48872 -11.77498 -1.567479e-05 31.63236 -1.121543e-06 -5.793978 -17.52699 16.56556 -1.855451 0.9232541 2.095425 0.9474326 7.947525 -6.417035 3.344022 24.63136 4.877733 1.380723 -16.31056 9.206929 2.102487 -12.00566 9.052816 90.46389 25.92707 -20.62631 5.318896e-06 -4.207484e-06 6.428251 -15.68367 11.14146 5.432458 6.486385 -19.85486 -3.970076 -83.91955 26.15781 3.384161 -3.284131e-06 -2.383842e-06 -21.96326 4.281974 12.2176 8.315587
40.70541 105.035 316.8049 1.703852 -7.846869 8.409161 3.770263 -17.84341 4.575902 2.137337e-05 25.85885 -2.094661e-05 -3.267459 -8.634498 -8.684069 -4.881013 14.67968 -12.00625 -2.416786e-05 38.64726 8.007577e-07 -6.221399 -15.30219 17.14127 -1.50992 1.074526 2.403214 0.8139531 8.005393 -5.881555 3.497032 24.99737 4.577294 1.386921 -16.33926 9.078982 2.119083 -12.1071 9.162085 89.99447 25.91681 -19.56858 6.801827e-06 -5.482925e-06 6.574331 -14.84532 10.55401 4.975974 5.933037 -19.12061 -3.830927 -85.25922 26.68178 5.300408 -3.321036e-06 -3.025485e-06 -19.34164 4.184572 12.73821 8.466692
40.92929 105.8086 322.018 1.550213 -8.397806 7.950172 4.274944 -13.2258 4.980788 2.460204e-05 26.04093 -2.520712e-05 -4.448129 -10.1008 -8.256806 -4.485952 10.93105 -12.10825 -3.206631e-05 44.179 3.127008e-06 -6.544437 -13.0914 17.85203 -1.162256 1.211082 2.840381 0.6747411 8.020461 -5.288515 3.630133 25.28081 4.227867 1.357347 -16.36303 8.893975 2.017061 -12.51178 9.272076 89.16891 25.86774 -18.07903 8.112977e-06 -6.604005e-06 7.252721 -14.12572 9.970979 4.707129 5.437164 -18.3376 -3.6236 -86.76058 27.05254 7.661166 -3.465051e-06 -3.686028e-06 -16.59951 4.061922 13.2727 8.60061
